<mxfile host="app.diagrams.net" agent="Mozilla/5.0 (Macintosh; Intel Mac OS X 10_15_7) AppleWebKit/537.36 (KHTML, like Gecko) Chrome/134.0.0.0 Safari/537.36" version="26.1.1">
  <diagram name="Page-1" id="2SUnYn5p8SyqGjUXsBJ2">
    <mxGraphModel dx="1014" dy="544" grid="0" gridSize="10" guides="1" tooltips="1" connect="1" arrows="1" fold="1" page="1" pageScale="1" pageWidth="827" pageHeight="1169" math="0" shadow="0">
      <root>
        <mxCell id="0" />
        <mxCell id="1" parent="0" />
        <mxCell id="_IbYy9LUXcTLWeNFr9aN-3" value="" style="rounded=0;whiteSpace=wrap;html=1;fillColor=none;" vertex="1" parent="1">
          <mxGeometry x="40" y="110" width="680" height="400" as="geometry" />
        </mxCell>
        <mxCell id="_IbYy9LUXcTLWeNFr9aN-19" value="" style="rounded=0;whiteSpace=wrap;html=1;fillColor=none;" vertex="1" parent="1">
          <mxGeometry x="510.16" y="150" width="199.84" height="280" as="geometry" />
        </mxCell>
        <mxCell id="_IbYy9LUXcTLWeNFr9aN-13" value="" style="rounded=0;whiteSpace=wrap;html=1;fillColor=none;" vertex="1" parent="1">
          <mxGeometry x="50" y="150" width="120" height="280" as="geometry" />
        </mxCell>
        <mxCell id="_IbYy9LUXcTLWeNFr9aN-14" value="" style="rounded=0;whiteSpace=wrap;html=1;fillColor=none;" vertex="1" parent="1">
          <mxGeometry x="170" y="150" width="170" height="280" as="geometry" />
        </mxCell>
        <mxCell id="_IbYy9LUXcTLWeNFr9aN-15" value="" style="rounded=0;whiteSpace=wrap;html=1;fillColor=none;" vertex="1" parent="1">
          <mxGeometry x="340" y="290" width="170" height="140" as="geometry" />
        </mxCell>
        <mxCell id="_IbYy9LUXcTLWeNFr9aN-5" style="edgeStyle=orthogonalEdgeStyle;rounded=0;orthogonalLoop=1;jettySize=auto;html=1;" edge="1" parent="1" source="_IbYy9LUXcTLWeNFr9aN-2" target="_IbYy9LUXcTLWeNFr9aN-4">
          <mxGeometry relative="1" as="geometry" />
        </mxCell>
        <mxCell id="_IbYy9LUXcTLWeNFr9aN-2" value="" style="shape=image;verticalLabelPosition=bottom;labelBackgroundColor=default;verticalAlign=top;aspect=fixed;imageAspect=0;image=data:image/png,iVBORw0KGgoAAAANSUhEUgAAASwAAACoCAMAAABt9SM9AAAA+VBMVEX///8wLytOeDhsnT/d3NzOzc0wLi0rKiZsnT0nJiEwLyry8fEAAAAkIx4UEwqcm5sdFxAaGBP5+fnFxcUfHRmtrKseFxBRUE6lpaS0srLg4ODp6elOeTb09PR3d3UhHxxcW1oqKCe+vb0eGxpBcCWMi4slIyFYhDtHRkTV1NQeHRRaVlTw8+6wwahtnELc59NdjDxily6BgYBoaGaRkI8UEA8NCwDF0b/e5NrO3cWqxZVilDeSrX+4zqdNgySTrImYuHzn8tt+pVdnilf8//bF17aLsml8o1I9bh7Y4NS1xa2RtHJdkyEbExR1l2B/m3I7OTiowJtZgkau+tjEAAALoElEQVR4nO2b+3uaSBfHxRuiAhnAVVFRUAnmYlTEJO122902bdrtbt38/3/MO1duarPPPmnj++R8fkiUmYHhy5kz58xgoQAAAAAAAAAAAAAAAAAAAAAAAAAAAAAAAAAAAAAAAAAAAAAAAAAAAAAAAAAAR8PN7e3tzXN34v+Ci1elJeH1r6DXY7zBMi2XtRLmt7fP3Zkj593X129+//32jxqWa/7be+O5+3PMvFvOr8j/NzWq1uT9c3foiLlbLt/QDx9LRKzSYgIj8RBGqTb/QD68oj4Li9W/By9/gLtl7SP+9+Ed16o0L/bBtA7wZ6326cOHu09Cq9K8Xyw+d6eOlRJW6VPpNVapVhNi3V88d6+Ok4sl0YjJFIs1+fzc3TpOLpalHCDWQT4sazmxFlgsmA738ykv1mmxOAGftZ9XGbFqNTwK+xDDH+Dqay0lVY0Y1v2XdAXb7HY6ra5pp3LGRoeh9352d5+Zj2mxSotisfgQy2J4TlVDFgFp/kgv8+PlJj1mNSvP1Onn4maZ0QpHWdeiqFM/U+qSoC6rWrtLC8on7NDJSxOrcMsmRCzVHI/B4v0//Phsi+pYqmq1GuslyUgm+rxcsQq3LHaf46ChWOwLh9WNXGlHLElCrcKLFutuTsXC7oqodck8Vmsj7cV60WJdfRJxKR2FxXu65mCmtJKxd0eWkhbrlxcp1sWfSQhfo2r1SUTaUGPHrpyMOuas0nUUa8ey0IsS61U626kRtdg6qaPGw24k4oVBx1Vfslg3X0vpAJ7E7zQvnEWxP1+lqg8cLTsMmVgz3Qmdtbm70THrrEbtoB1Ovd3gtWF2VmGI23VnuYY9TyclK90r77R6TnJrDjh4YKmOwx2UpDrZBl0L5S3LC6Khoihq5HYzVRt6VbN8GaOoaBPOMoXeKBqPfZe0s7Rh6CVhcCuIxuR8CmklO8dkup/ymeHkEh9tWHEcmm9QjjqFlGXNBqEmi8qbdapiVx2KAur5tGlSNgs0OR2QKFGbl3gSypZs0pb9zLxa1jJyLego9JAYhN39zYRlqbqsJHcmbZLqTpQP0lAoylpNNxu7SXLASlaRLGVRnJ2LPxsXH+fLr3QzulajafSEDIiVL27iwIarEEtSMncmV0V9Z1ylYsn+UJX5xPqXzso8LR/oSjKzrDUSx5O5+IjEwhjGxe9/n3KYy2q7j/Q0FisH8lh5h9hVXapawbSjjxBXILJJWWNILY6Gb6qKkI8/M7HKGy6ijCxSQvLSIxOL8L7I6X/D3wyX393ZgVEY+ywiKEIojjP4rfXGVaKVNG7RrxWuvUr9jz7mdYOu3ejZ3rQ6lplYocK0Ukder9Ere45vHaNYOHjvM7FIlNUT/h3NDtRPhqHleKa5FiEs9z0rlRqW1eHVhQ/0B/hLwB6FLHx6wehKiLQzXGpwKX0auoqOTiyDuPkFCd/pZBhLgQ6t7YkaSshqVDTRgnwbaMSsYq+N2TK/jUz8mT8JNTU7GlNStceDOytlz43w6MQi4RYOG8hWBRFrJm7dahxoEMdZwvTO+SymEdvxzuggVJNIYsUmgiF28QYXq75NPwkyMdhcLLlt5EqOiqul2NjJijV8TKw4kV5zt6WRFlwabCEGo6CriUsTwYGsOdnAvncmStSVuf/KPa+jdxPfUG7pHY/XbNg2flDmetqhJzW89bT1Qxa975Ziy5ANw6j62DDMrzq0rJRYbaZHXaFLz2OMLEYtLh3FoRSeG7ahnsTo27gET4VB2MlnO3aIxmPL0rZram4mjvUtCw1X9JvebHbtIPJ9C2FXWanimdYSk/OT8kZYFnPwduzgDyVnO5bl8fCAiGVUmaNOgiWBPMJVW6mwo05SIUkfsJNM1XRdBavSSl/URL6LVAVZcpP0q7OR1bE/RPJwS56QPnZD1ycPpt6sdDdYbiRLzR+QXYo4fsFCh4EINQ8+mR2xzHEiVsOXcjFnRqyUAfGjlmzSkzRQvj4Kkru1z2T1vNIYlPVq06YLbmhtGw0zUPxzKlbVjUZm2WzL1e1Qc0zbC2Q/LDw5YoPnlG8ZBvx20jNWVqz8MDRTltUbHhJLoWKVVSV3XI7YU/G0fLbjWrFaoaLwWzecMpEcMbszApc014dVn06jPVR1Xap+Wau6Tz8/lGKxin3WL34TwYEGu5bFjYJblhCB4GJk9omJVbAD5ObUjJibrmzHebPb8iv0NpI7SHpgRu4ovjaJ2XSVh8A4kLOYpRakevT0Pl4s1ODAlL5t1Imdlrm/wR7LSsQyuBDJbJjAq3eDyFLSsgx53mh0tptsica70LHU9ALE1LdihybXccSCxeLxWaiIbrfl6MmdFl/Vms/7ONAim4ZlETvsmpYxSq9naft8lpgN1XW+cYpe1wlULfbo7nlcUu44wRmKR6qQyFEyHnQk/zVLPmszLJZIzhxfiHXuRodykP/MLRfrdR9DPHzstCQrd8N4ct4vVspniaXDg4NY0KhMZX6h6jZbYq6EcbNJgSiSSb4CORlhDjGlA2I9uWW9iiMHkh2SodKN5yWkp2t2Ldl6XKwujy7zk+lgirvecNLx5kA8FtkozDLrfLbwmzyHxOaTvvGt/Et8npVykhErHobn8sHg5z/zR429Ikl3wiZfWF+4WHXkxE+wMkK5rbD9YjXEKFYyXfW2TXwTvaaU1pBH+8SPV5pB2nZ4BiWmQOyJ0kvMgXySs6yznyHWxcdaKSUWCx5S24bKWdid9eyKHkSulNvd2S8WWXVgElgdMYENvDaST4hYSEbtWK7BNpGkgmQtjAWxRfjCTXulphPsQugm2p0To/sZlnX1jm6G0d9WsFUa6uIL01SAiGPpKEIq6/0hsaSUWPEavmRZ4brVba1HJJ6mk2sPkWBTcbqVctlc10UCbhKxyFL9duXNymVP+Kz6xmZXaJ1llrb0oZhAC4YinRj7fdZTinX1bs5jd/J3wdf/2Ivd4VhKkUSZ/0asghdvpeGsGOeHarJE00P8ASAtWTWkcwERC1/IR+kSsr3kTdcDEmdZtpCnUZhFrpgTuhaJ336wWHdEKbFfgf/3mWXxbdaCo0n7QP9GLJy47Wt7loiVQVZ7Qqwc/tYoNKIh2TdyVDlgZ59VsQTnCg8qbFWKKoUfOwyv5nybQmwZLsTSMvfxhY6WT0voAKKvHO06+KxYBc9SdxpLG5NG4nnUOr2lyiafeddRwNInknf1SCqwNiutEG3K5HnJ1sibVXS1bpHx+SPFIu+/U2cV76+eFhO12OtsPQdl9v5k9US8zKaxBGYTiyUOxPN5vrGknJyRidUITywle9IVmwV67RMrcznLom6pF7mIJKn2duwOETpTfJJI44THV87weJUjOl/uF0t7ErH+WZayryknhpWoVbD1ACFr6Pv+0EKorYup3Q7alHiur4gDqfStp7ctzRoOfbKypEmhWIvrtUI5QsOhSo8HaztuUdZHPiuhl+tw5acj9r6FoQfjKMJTALuq7QwjhKKApT3rZpPnP2GzyWfboNl8kgj+20JYFF/3K2agi4Ds1ipdfTpd663KoWXT79DAjdfTqd7x7Mxxo+x1yPGWmU90B7NDJaw35VkvXdmsiBM3bJt3sEfXTPmnJ1l1eNvvL+bz/XZF1XoPPxyI+TzBQUL/9PR0QeAxQ5r+5C38dIBzN8nb0g79+2/Xj5/oBfDHksTr/ZRB9ffK9QDWVfgVp87zBY1C94mUkgt+mXIxWdDX3l+ffl8qzP2L/zXdxaS4mNOoYb447X9XsMmLd1sXk36xf7qY89VkrNhBE4PfaRbeU2+FQwccNswpO4GWcFpH967BT+fm/lFnxaS6f/GjEPP5YfIv5Jr0QSvK9fvJ5Hu+vd+fPFzCGBTcXGK99hpYHx9/eAuuPcvF9eW3ByJNmv7Dt8trSKMPcHHz+frLJeHL9ecbSHAAAAAAAAAAAAAAAAAAAAAAAAAAAAAAAAAAAAAAAAAAAAAAAAAAAAAAAAAA4An4HwF8KCf7C3/0AAAAAElFTkSuQmCC;" vertex="1" parent="1">
          <mxGeometry x="60" y="211" width="107.14" height="60" as="geometry" />
        </mxCell>
        <mxCell id="_IbYy9LUXcTLWeNFr9aN-9" value="Data Contract Validation" style="edgeStyle=orthogonalEdgeStyle;rounded=0;orthogonalLoop=1;jettySize=auto;html=1;startArrow=classic;startFill=1;" edge="1" parent="1" source="_IbYy9LUXcTLWeNFr9aN-4" target="_IbYy9LUXcTLWeNFr9aN-8">
          <mxGeometry relative="1" as="geometry" />
        </mxCell>
        <mxCell id="_IbYy9LUXcTLWeNFr9aN-12" style="edgeStyle=orthogonalEdgeStyle;rounded=0;orthogonalLoop=1;jettySize=auto;html=1;" edge="1" parent="1" source="_IbYy9LUXcTLWeNFr9aN-4" target="_IbYy9LUXcTLWeNFr9aN-11">
          <mxGeometry relative="1" as="geometry" />
        </mxCell>
        <mxCell id="_IbYy9LUXcTLWeNFr9aN-4" value="" style="shape=image;verticalLabelPosition=bottom;labelBackgroundColor=default;verticalAlign=top;aspect=fixed;imageAspect=0;image=https://cdn.sanity.io/images/nsq559ov/production/7f85e56e715b847c5519848b7198db73f793448d-82x25.svg?q=75&amp;fit=clip&amp;auto=format;" vertex="1" parent="1">
          <mxGeometry x="203.57" y="228.5" width="82" height="25" as="geometry" />
        </mxCell>
        <mxCell id="_IbYy9LUXcTLWeNFr9aN-8" value="" style="shape=image;verticalLabelPosition=bottom;labelBackgroundColor=default;verticalAlign=top;aspect=fixed;imageAspect=0;image=data:image/png,iVBORw0KGgoAAAANSUhEUgAAAMgAAADICAMAAACahl6sAAAAw1BMVEX////nJWTDV3rRf5rnKGb8/PzoKmj5+PjoLmrz8fLXu8Ts6OnqQHfpN3HpOnP6+vrl3N/ThJ3j2t3eRXbaWILdU4DRsbvNoa/gUH/f1Nfp5ObHlKXYXIT18/TJj6LOd5PckKXhxczgztTUrLnZc5TUaYzUnK7qSn7cZYzWvsbiZYnsVIXZxszUZIjkfprMqbXLbozje6DuUHzVoLLZlavaRnfKgZjwc5vHepPfs77TYYbZqbngcZTXd5jbl6revMXOT3jQsE7kAAAIlElEQVR4nO2da3vaOBCFccFgAobcuCeQknBraNM2abbbJtv9/79qoWkonJHl0cWW+6zebwU7nmM80sxo5JZKHo/H4/F4PB6Px+PxeP6P1Hsf37yZdNuu7TDlKAp+0hy4tsSMVx1B0Dp2bYsJw52OIFjUXFtjwE2wx9y1Nfpc7esIKm9d26PLafVASNC8dG2RHmE/AJ5dm6RHGXUEwQ/XNulwVKFC4lPXVqlz2aI6guDctVnKtC9EOoLgwbVhqnwS6wiCP2wM7ibpCM7+qDG4LnSQF5aujVOgfZ6sIwhOXJvHZyzTEQQr1/ZxacRyIf3QtYU8LjvoFegxH1ybyOMEzG7VpxA9Bl3XNnJYg9XRtFS6hnCl1XBtZTrEQcbbT2/gw/Piu8kMTf6Z4Taa8HHhQ5XvxEFePkc3qRa8qjKNQMjOrXFuaRbbTTAp/LT7JvwMX904NDMVTAr7eyWgBswmlWt3dqZxDzoq0/1vMSKuFrZk18B57/7wexyDLwo6BocY887wgC9wwJUDKxlcgZn00TnCR6+Q6eIawhCRM2MYFhewHlzDuVs4vGJg/El0kFNCDE3EE94AJ8zCVbZ76CAJIcjf6CZT8XGuOIaYt5KYceAY3C+Um7QXYN4k8VBSYClUqIKjUbOefCyJKwsUquDIG0lr1RiqxBLV+TLEp+Uf+fHPcHinKG5CksKUGIq4yTgfO9PAmPcsNWVCN4kKMQZPcUHnKP0cTBcL4Sa4EMIpUpN4pgD14Ad8sFg39xQm0KrzejBZCGFG5hjSxI5rEac4u10xTwyXcCJmYTmDSSF/sZO4yX36OdmBSaF8Sj8El6+rDhfh36KDKFXZMUCLhlnZmUb9DExRK+iSYsVFRnamgv7aVDz/GMtHjtJFMoKKA43B3cOoK67F4bJJdZ2lvUkMceQVhSaNh1+D0+29aKLEweKLi5JdWjluM8J2l3u3vDpbETNDvBkOQhWSFEJHw/AKJ4oNixFM4KSqknu6iN1xh9WQeu+Wqng57l33II2a4/3IOcmqY7Vh75k4HV3gcHRAtOztzRiYlb3L100m+My8dlo3HlCikNveq+838OHq5amjC+Nm/HKL1+O+oG1OTPVi9BLPrODni3NcNjkWueigLPBuOYvx1vfJsJGbm4SYFM4uV4+sJ4pQ+fy4ruOySTkvISTmfUrpopHT+gvV5RQHY2BhnziXOJiEehnwLgcdJPjOhBziYBxjMoJRHDODlOMyIuuSXY007suMmR2kkP33OP3IyHjZJLEvmbCJ2tulN/uflEuX1woO9j1LHcl9yYc0v65+PhogZEOjN5P0BO8TZdgIJetL/k1c3oX0VMiW1RPrGetkpqPGeDAWj+u9UEkspFS67E4YgVlm6WJKX/LmiTqBAl2SkC3rSWpgk9EYTFYxD6icj2kNRCZk8wunhZq8yr4qUgdZjITXlAvZMjyRPWOZlOxwCXPHLkXSEbJhKknHMghVsPfildueZEMIS0hJkiBH1tNFshCyJZ5dy9dnuEK2Fxh9E11C1nqgBR15sbAjQkHIBuHEbzldxL5kWmoToiaktPV9HFKqVpeusdLBXQhRFlLKttOZNO5zf28dISRzsxgHv4c/3eG++EBHSIadzlifrbDjUi0htNPZkpvgRoMKP1PQE1L6AErs7JshbccKQammELKB3MoiPGlCVCiXawohD4GNdNGoNV9XCN0uYJwuYnec2hCiLYRs4GAPlAkYbl/RF0J6tg33LmITk+I0ayDE7t5FssVLcUQ3EEK3nRnsH69hlqAaipoIIQH3k+L5e2Cd94tqcmAkRLgupsVb7EtWTteMhJR+gBDdLjvsO9RIoM2E2Op0xvKGRknDUMglmnClbgKNeXWKTIZCSIdHpNE+RF40o1P2MxVC7qa6m+DOFr1CrLEQ8hqMvupfwKV0vdK4sRBa31SMg/+B0zUXK8yFkL2LkdLexTWcrZsPWBBC0kUlN8HQUzc6sCGEdDor/J0nOFX7ZVI2hJQGOH6ye7ZXcKL+XkErQmjvC7PDg/Ql69f27QgJyf5x3nk48ho0htgRUmprhSqY95u06lgSQndmM0IVzAKM9pzbEkIr26lxsN12NmtCSB/+LK26hmUYswZDe0JIA3tKuvgD20fN1vDsCaGWSV2XNOE250b1Y3tCTk/QNOksLegqq3TG+uVKO0ISGgtk03TC4n1zrPnqTgtCwvVNQsfFSHJWcntcv6ezTmwsZDhOboyQpXqybpPofK78uxgJCWUtERseJecmbZZ4ZaHo+wZCTslCNXInOfs65dwgqG58n7/SoymktiovUptAI+k9xQlUSOuEO45pCUn07kPkMTl5x2ICZ490w5QNIbzWui1pr6Wulbkd4/GH9HxLTUi4mrEvzsgSG3cz7uaDZnklD8UUhAx7N+zLPneZayXh0ZJ7a6LlkeQZ4wqpXd9yO7zjj2pl03p3wuzPDeLZXdIAwhJy3FtyW7S/8FwTmT5zf+zKRVd4gXQhyRv9CK0T/VC8vRnQmZeJZj16HbmQcDrqMB/hSn9s3JAyKLM3Ht3ixC8TciwJo4Dmg50tPmq+zxKi4t2MYZ7P5RF3ogrim9++LxYy5Hv32ePa/n+KM33mXr66/OX7AiGNOdu7YwPvlrMJ5ri/S/Rt6/sgJByMud4d9AUd6lZR8P3P9//u/3PG9+7beR4b+DYJTyfDnVY6CZw+w7neltZUOloptRGD0bnlrZXR+56jV6M0LP4u1eW10/8+4vhuprIpL4HWc7cArwoLu+yJX0j05PzlWjsad+ysCGh+5SZJebEJyJSfsXhSzJeu1+bsSDDYi2MKCTcebN0UwbvlhF35a1GK5d1yZIWYs3LRvFuOeDUgLhfTu+Vg0N9/XBfYu1PYFWJaV87eMGeJ9mo8KY8K8dZVj8fj8Xg8Ho/H4/F4PB6Px+PxeBzxH6+ags4tGrCiAAAAAElFTkSuQmCC;" vertex="1" parent="1">
          <mxGeometry x="214.57" y="341" width="60" height="60" as="geometry" />
        </mxCell>
        <mxCell id="_IbYy9LUXcTLWeNFr9aN-10" value="Pydantic" style="text;html=1;align=center;verticalAlign=middle;whiteSpace=wrap;rounded=0;" vertex="1" parent="1">
          <mxGeometry x="214.57" y="401" width="60" height="30" as="geometry" />
        </mxCell>
        <mxCell id="_IbYy9LUXcTLWeNFr9aN-18" style="edgeStyle=orthogonalEdgeStyle;rounded=0;orthogonalLoop=1;jettySize=auto;html=1;" edge="1" parent="1" source="_IbYy9LUXcTLWeNFr9aN-11" target="_IbYy9LUXcTLWeNFr9aN-17">
          <mxGeometry relative="1" as="geometry" />
        </mxCell>
        <mxCell id="_IbYy9LUXcTLWeNFr9aN-26" style="edgeStyle=orthogonalEdgeStyle;rounded=0;orthogonalLoop=1;jettySize=auto;html=1;startArrow=classic;startFill=1;" edge="1" parent="1" source="_IbYy9LUXcTLWeNFr9aN-11" target="_IbYy9LUXcTLWeNFr9aN-25">
          <mxGeometry relative="1" as="geometry" />
        </mxCell>
        <mxCell id="_IbYy9LUXcTLWeNFr9aN-11" value="" style="shape=image;verticalLabelPosition=bottom;labelBackgroundColor=default;verticalAlign=top;aspect=fixed;imageAspect=0;image=https://duckdb.org/images/logo-dl/DuckDB_Logo-horizontal.svg;" vertex="1" parent="1">
          <mxGeometry x="373.57" y="226" width="105.88" height="30" as="geometry" />
        </mxCell>
        <mxCell id="_IbYy9LUXcTLWeNFr9aN-17" value="" style="shape=image;verticalLabelPosition=bottom;labelBackgroundColor=default;verticalAlign=top;aspect=fixed;imageAspect=0;image=data:image/png,iVBORw0KGgoAAAANSUhEUgAAASYAAACsCAMAAADhRvHiAAABFFBMVEX///8mJzD/S0u9QEN9NTsgISsAABMXGCQAABYZGiUAAAVOT1QAABELDRysrK7U1NW7u70AAADz8/Pf3+BcXWKNjZG0tLaAgIOUlZhCQkoAAAxjY2jl5ub/OzsSEyAFCBnGxsj91dX/RkbBQUSenqF1Iiru7u86O0K5LDD/Pz//NTV4NDqioqR1dXlVVltsbXHbzc7JtLW4JSr5vr5yGCJ6LjT3SkqINzz43Nzdq6vVlJXIbnDgurrDXmD+9fX7Vlb8gYG3mZv+kJD5mZn6tLT6p6eXaGuIS1Di19iRW2D7y8vapKXGY2X6X1+gd3n6bm6rh4n9fX3BUFLQvb/eQEGhPEDRQ0XAp6nnR0iGJSzSJSjmysqtIgt3AAALHElEQVR4nO2bfYObNhLGjXdlwAZj43fZC8TrteONX9ok29vcXb1JNmnT3KVpLtfrvXz/73GSwCAJsJ0W7LUzv7+8CNDoYWYYSWyhAAAAAAAAAAAAAAAAAAAAAAAAAAAAAAAAAAAAAOzIiz8f2oJj4MXTx385tA0Pn/HTs7PHfz20FQ+e7y/PiE6rQ5vxwHnxmKh0dglht5EVUwnCbgss5M6+6rBb3b3cNvYXgTORsPv7ttu9uvkmI8MeFrfXw+vXG4VaPT0L2RJ2v11dXf2WqXkPhg/D4vD6foNQYchtC7tvb67Oz5+PszfxIfBmWiwWp9O3ae1/e8yptCHsPj8hIp3f/JCPlYfnukiZDt8ktvIhx9zpReJp3/z4/JxydZqpifByWPSFKj5LaP3H5ZmkU0LYvfvp+Q1T6fwmd3MPxaOLYsDF3Xu5UQy55LBr/LAW6fzm1X5sPgR3a5mKw4sPj4Smd09llWJhN/45FIkk8ME+Dd8vb6fFSKjrj7dcUyzk5LCzf+FEOr/5ae/G74/VdbHIC/UpFCoecizsvg8vfcWLRBL454MMYE+sk3goVFBvJoUcH3akmjwXuDrgIPLn/UWxKAnF6s3EkKM8pa2smhS4+eXQI8mXYozpxduUkAvC7vO5LBJJ4O8OPZB84ZN4KFTxn2kqEZ1+jYt0fvPjoceRM2ISj/hXuk5/ist09e2hx5E3H4fJOm0Q6klcpkOPIndiSTzkuxShLn+Vdbr5+dCjyJ80b0oXKhZ2p57AKfcJSTwS6nKXsDv1BE5JS+IB/04QSgq7U122FElN4ulCiWH33D70EPbBs9QkHgq1MexOd9lSZFNyCpDrTT7snp/ssqXI/ZaoSxKKD7tD278nbjcn8TVSdbB2p6sTXrYU+bCLO0llVBh2p7rvFOfZDtkpJlQQdl9LAqdsfdclCsXc6bSXLUVe7xZ1vlCXQtid7r5TnB2TeMC63qRhd+rLliJ3X+BOnFBPTnrfKc6bXZN4KFQQdqe87xRny/w3CVpvXv7n5JctRaSdqJ0gL73Hh7Z7z6yGXxp2hOF//3dou/fN6v67C8J0Oh0ON3oWaR5Op+xcYTf962F1+/7Z2/vXnz7eDa8pFyL00PTuw6eX92/fvL/9ar9ZFVmtVreERz7kFzlwaJsAAAAAAAAAAAAAAAAAAABOjWP+7rHdrIxy72QwWyoaxtjpdbzcO8uK0Ww2qwa/5xght5Jvf7UedpDCQLpb6hzJx1h1x3F7/s9GnRpfquXYW6OnBRoF6OVujt1lR5k81cCBai413MnR7loZ+W7kEHRfMNF97e5o1K2mXX84OJl8bzJCb/KoyVl+4NJmHeiGMh9Vq7NOD6vs7x53ik29e5FhnxnByVTolHWkRTa2DMepW9l15T8GvGysD4y7BvUoZxmdY5eIPc3s+swKXqZCbdnnHL5FHraWoUw9qonr8YfGPZ0cK0edHIVMIhnL5BnUlxrS0QkSDACZ5nrS+6HBxAvLApCJ5msjXnz3iTuZ4Wvjq5fJxqSnXvx4tW4Y9cjJqEz9tFtYtVpNjNqx5XnWhhJ1QNs3vq0b5ATx4ZFrYpdsk0nOJb+bgZEigE1gPyZi5an62lmkmnPa9MeirJlmvRVdaXUQ1lxXw+rcS7pxdaEZtN0oVcRSrO2Qdwl1AKtfMugNemG7tXTpNYY5F0bOy1QziUXsAs8ULFZKX6RIImPqTZNNZ0gyBXnMIv7lEpnmfmmqho7XWGA9LOaNScztW+GsiHRsarxQbTK8ksUqoKDdnTCXtJvhPfU6n0cFmciDM32ZXFEm/PukESjT3LRpCpfiTRoxql1YOMLRQmFWF05HvJsRGrojPWnOk6lMJJ00OWdAKnHpgaPzV3QE45O8SZLJ+IMSUSpkWPpywwkIG4bGTDYodU6m2ogYhBxX08qBGi3MHrlrYGy4bHDanLuX5YuoasSlSgZTzIzamUwNck9kkus1NhmgeRMh4lf0jia7Gre3yFQjedVgnZu+yRnIVKXPTtswYxwQGuQktBjTnwM7lEkdOQrClZlnWW2PHZ3ROgLhpUfc0/bmmA6rFC0CjQ0mktlioTiosvkj9niZTOIKWsUjnTRabDKg1TqqYvTpkXF7wpR1tshkEyvHHZ3ejFmcycyOPSG3v3HpJF4QUJkUVVF7fEq16LzHqYRmDSrUI+rhKRUkuRc9EL1nqUyKruB1vhoo9HxdVzRvfUqLnuKG7pQsk39mxpMVK5j5djbcM0UmRRWjlaYxRzjU1PmB0JATHZeGRjgFYDIpOFoyGmt+bvGiC/pCjtijTMEKAV0iaHkpp6TIJL0i21q8jGEDD6wdV3tYE4UlYRuNzfcmLkOzsSo6n93Y9EBd/7VPmUidEbxJdBdXukm3TpGpJJ5LnUl+adK3DjfyRktsb2hcM5MJ80Ul60UcLO0kPGevMhXseV0N38CaG68Kk2VCinBSA0u+wKD5RU/vmb8xlUnsxaa+YwpX0Dmosc5++5WJZMuO5kZVYUmRViqTZRKigbzmSAAZsekBNRenv2tK3ECpTKqQuqhMUmTTN1hp3cu+ZaLdzNVSWCC7itBDskyqWDo2kexf7LYmP4eWoXMeQSazzTczmcQZ56FlokaPejjIU6jO73ntJBN9qcXrVDb5myV2Z1sj2tnRyUQY15ZBsWtwIuwiE1trqHRkliimZ6FRm3WaEwdrrFo8RpmYuRNWwJSjUNlFpgGrwHUZJL3krW6lXDIdHUUT4COViWRjLE4KdpGpUVLSiGTyJoYazY2RYx61TAWLvYnDTneRyS841STC+Ukf+xoh3TE1rDdHA/OoZWLlMQp3vXb1JlTpJhKM3V920TWz0hnV/NVNuSA4Mpmo/Yq7/mMXmej0X6qkJOiyi4KMFm/8scvU4ycFOxUECTM6EYetH4mzlSORyQ7XvCUW/ARtJ5noqog4sRCh68KKLnV2HDJZdcPAiat7ivKl3rTNsKojz0X8SD0CmeiOQeLd/CooNHcXmTwtaeobQd8K4ia8P7YjkImtSyQlXjoRj5a/7JKcdxJkYjujWF4F7YSLWLMEmZooT5nczGTqOsJy9JqawZahQ3NZ6cifkCRTVygifAZl1TUWLHjZOMTZHfuAIR+Zuqp8sz+Czept2Tvb7CiniyMvwiXJVKA1tSmGHffNxgDLWg/M/CYrNBNmuJ/PihkFd7g30KDPdkDKXnSIBceEOydRJqauuYjibjChSwDrr7FYgHP7cp7J9gTykYnNIzRp3ewPsGALl6qxrFpj2x54o4o/o3B5t6iV2BSsM5t1/CW2RJkKczZHMzp0uyjcgQr9i0WyrrT9ndzawiCPOzeZ/G1Yt9KddbP5DLpiBvNQje79ucHSnCHmdfZhmKI7TrCZmCxToc98U3cNB6nBfqYTZasmeyKmgXo9RJdrkDvO7U1X8NhOCFIdBxUyoSNuaLOBlqWVNButtxV830iRqdCS74V5uXvB1ri/ioLKVn7lJUni5bUJGX2+bVUwt7xB/Kq8jN3ZXvj7zcHStIURMhNkKlgTI9rx1zXFE1o79bARuRMSv3WE1PVAqyWESqJMtFlaCzcRCjdI+atrBkJiLmoHX3W4mX0sbrUmWDPpB8+mhiujxCV+b2liEpX+w20s+v1m8tqtNyfxZpqma5hLT25szN0S7cfFPSYIuU1/7W+1JrmncIXNN/uMyEmLtX18s0evFgWxRxNiMVYzqwvoPa32bDSq1jaVZOMd9+MHXrvd9lI+wqL9VL09/R+Dvf7oAQAAAAAAAAAAAAAAAAAAAAAAAAAAAAAAAAAA4Bj5P5JqFZ93I2r4AAAAAElFTkSuQmCC;" vertex="1" parent="1">
          <mxGeometry x="543.57" y="200" width="140.16" height="82" as="geometry" />
        </mxCell>
        <mxCell id="_IbYy9LUXcTLWeNFr9aN-21" value="Source API" style="text;html=1;align=center;verticalAlign=middle;whiteSpace=wrap;rounded=0;" vertex="1" parent="1">
          <mxGeometry x="70" y="160" width="80" height="30" as="geometry" />
        </mxCell>
        <mxCell id="_IbYy9LUXcTLWeNFr9aN-22" value="Ingestion" style="text;html=1;align=center;verticalAlign=middle;whiteSpace=wrap;rounded=0;" vertex="1" parent="1">
          <mxGeometry x="205.5" y="160" width="99" height="30" as="geometry" />
        </mxCell>
        <mxCell id="_IbYy9LUXcTLWeNFr9aN-23" value="Transformation" style="text;html=1;align=center;verticalAlign=middle;whiteSpace=wrap;rounded=0;" vertex="1" parent="1">
          <mxGeometry x="377.01" y="390" width="99" height="30" as="geometry" />
        </mxCell>
        <mxCell id="_IbYy9LUXcTLWeNFr9aN-24" value="Dashboard" style="text;html=1;align=center;verticalAlign=middle;whiteSpace=wrap;rounded=0;" vertex="1" parent="1">
          <mxGeometry x="560.58" y="160" width="99" height="30" as="geometry" />
        </mxCell>
        <mxCell id="_IbYy9LUXcTLWeNFr9aN-25" value="" style="shape=image;verticalLabelPosition=bottom;labelBackgroundColor=default;verticalAlign=top;aspect=fixed;imageAspect=0;image=https://www.getdbt.com/_next/image?url=%2Fimg%2Flogos%2Fdbt-logo.svg&amp;w=256&amp;q=75;" vertex="1" parent="1">
          <mxGeometry x="371.4" y="340" width="110.22" height="40" as="geometry" />
        </mxCell>
        <mxCell id="_IbYy9LUXcTLWeNFr9aN-29" value="" style="shape=image;verticalLabelPosition=bottom;labelBackgroundColor=default;verticalAlign=top;aspect=fixed;imageAspect=0;image=https://dagster.io/images/misc/dagster_logo_primary.svg;" vertex="1" parent="1">
          <mxGeometry x="262" y="450" width="170" height="36" as="geometry" />
        </mxCell>
        <mxCell id="_IbYy9LUXcTLWeNFr9aN-30" value="" style="rounded=0;whiteSpace=wrap;html=1;fillColor=none;" vertex="1" parent="1">
          <mxGeometry x="340" y="150" width="170" height="140" as="geometry" />
        </mxCell>
        <mxCell id="_IbYy9LUXcTLWeNFr9aN-31" value="Data Warehouse" style="text;html=1;align=center;verticalAlign=middle;whiteSpace=wrap;rounded=0;" vertex="1" parent="1">
          <mxGeometry x="371.4" y="160" width="99" height="30" as="geometry" />
        </mxCell>
        <mxCell id="_IbYy9LUXcTLWeNFr9aN-33" value="" style="shape=image;verticalLabelPosition=bottom;labelBackgroundColor=default;verticalAlign=top;aspect=fixed;imageAspect=0;image=data:image/png,iVBORw0KGgoAAAANSUhEUgAAAOEAAADhCAMAAAAJbSJIAAAAdVBMVEX///8ll+4fle4AkewNk+37/v8Akuy82/jE4vnj8Pzt9v1Uqu/S6fvz+f4AkO3I4vl3ufKj0fYnm+47ou+hzfVfrvBJpu84oe+t1Pfc7PvQ5/pmtPHp9P0fmO3A3vmQxfSAvvOYyfWz1/dksfF8u/Jwt/KIwvORkUBJAAAM/klEQVR4nO1dCduiKhRWQEtLKy23sr3+/08c2VQQq69cah7emXufhgh5Wc6BA+doGBoaGhoaGhoaGhoaGhoaGhoaGhoaGhoaGhoaP4tkXYczdnW6R+ZDVMGfjV2f7rGAZg1AM/xBaIa/D83w96EZ/j40w9+HxDAauz7dwwEIAFT8R/4Pj2PXpwd4juOk82yxyOap8x9uLX4eVh0tKUWS57qe53plys/AC4Ma8kORFAkpV8Nw45x8jmnKaew6/w2Ob2IJYrI/cZFim6D6A3K8AzZxJipJAfoxWeoImsAMDWOHhJTg1/Vhk6HzMUNviIq/DJmhZaRAZGgZe/Q3hrN4MUTVX0ST4VxiuDMmf2O4hsC/fU8/7jpn6KKiABR/zcLgaR/G3h8ZbklugLJhCDxF56M05QV+C8XnstQypn+Rpcvy5+A7BmrX2sIF5RAA8Vcs8GRJ86nGT2p50W0oFo/g+LUjCQQxQyEFYYZinoertqg+i+F0KBqPcL8el1uK5fU2KVJOx+PxRlNuy9u52FgclsfjlSYUXz1S564gpvAy93+DKJRMOBm7Qp3jJE7iEWw6zqSOeZGSTSbnFUWRsqMpE5qQFJ+wyF8IKS5LqeCW5W9FhiacD80w9+0KEFmG60Obn3/atl+0OU5hScUHP8b7wyIzKlMuLKWEvy3Lj8TlgomG3i57gVAD5L20P8wa2iKzhZRN+YBAJGiCcGCG1lsMm/qwjaFUPv6uNPSMwhB41TKyZOhI61JDsT9ctDKUCJrgeL2EcW4GQbi573dDM0Sp1BuKHXDcXHk39sTVKI1lhibCmyli5QEIoijpeeMo96GK4fO9hdfOUJY0MgDMkyEZIuc5w2YfFvJ20iZpjpK2UABu+uzGJsP5W304EWVPxfAsTms1xeOADFMVQ0mWug1JY8mcK4bO8z40YZ92qpe0hZjyJ23xfCLSEsdl2NQWTYZt2kLcH6oBexU1ijWNL9T1VY3fNg8NK39CsO8dVezzFSZehQbFuhTAekpRV69KwWvOGTYuwSqL7S+LFLtMwb861p6QPJmJfa/FvTRNpxTFJyy23TSdVymWkLJgKbs0XdCUrJEynadp/Qnu40701/0S7B3Z9bGkgdchaoEPOcWDTuEwtJbyShae5HnZ6hJA9JAh7Mk2Za1mURjG7A9GFEZR+c+YpoQR+7JCmSJ9EVcJEftnbNoQPtMU/qEfgm4MgfRsQP52AdD40JoTBn2Z3jYvrDP6B0L3vtaj6QtLxZ5R7JuCQ397w/2IDBGxBqHo1OuR6YgMwfp8nizSvg0Y4zEc6k7DdDSGcD8MQ2kXPyB63SbV4IzVh3CoJehuJHUIwFD3MXbjEDTRcSCChtGwQw/EcLhj/KaVdhCCl8EIGpdR+tAf8FztBStt9xiyC431GOoCpc8r1hkWIzBE2+f16g67ERjCYe9DDa8u0H1QgsZmaIYgH/h66WloYQrPwxKUbPD9Y4RbNAP34aCagmLYVQ3sySr6CM+PvDrEKN57Q24RwYB7ihpmww3Tfg9AWzHcMB3rXrA31DBF0Vh3u+VbkX0h7/9eVwuGUfqjupG8cAvkc4wkZSiGsO3743qXhr13Yl8nvK9i4T+v40cYY7EmYtavOB3Mht8O5/E1ic8A/KG3hCqc+hM2AH2F/48R9TVOUf4djni9ndHAy1e44WH0Ik+BPb6MqbDuniIMh7dZPMKhY4pgfC0o49CpQIXRd3UgQYfnNDD4BiXYxCLvRmnA/JskjAB300E3+sH6a1SEApPg6VXQh0AwTr6ZXwFrnb/NEUD00Nn5W2AlIfz7fMTuZ7O+3c+6w/wYQyTfHn7ArqBnXpLRTE3vIT1FJkRP+xIUMw/m0Sn78smnhpetLzGAEHtCNlxcScdBlIe3JPuZsamENz+frrM4L6RIwYgC2TAIossxmfZ+BXZAeF6aZoviT5bN0533292moaGhoaGhoaGhMRzOs6gzi9hiFn5fkOSJD4Df0X3dhY+A/xVxAuuYge78jy7YFGB/24YqxDt11E2tyN04+9vMNFHXDAe+g/8cmuFfoBmOg+4ZakkzNDTDv0AzHBA1G3wrw1fs9FKe75A01uK0CeM4uqznpH4qhk5yneE8y1X7PYpstY3iOLwcFhXNlj6cRPFRaIsUlx9Gl8NUbtlDGNHIydb8dInCOJpdz39rsd0xp3Ga8IFRcPJUDBczWOZBkTJUs7cOqjzmnddBydDdQFCP/mQlIYI0nieC+U1ow6VvAn9flH9g5eM8aPn6sY91R8L9SmgmjZV3GgmH2wCGTY/rVV6/yACQfWhnmNCzR8RbYRrXywfIv1b1d3FWtDHWpnBRAr4cAMUJ5RsWAM6I92jFMLEbJ4TypTRr48t5IH1XRZOhM2N8+I7j2LhxhfLy9r6L6wfirXyBAL546ShThaKiR9glw1Oj8gV8IYKaGysOhIG5MxSSZs2HDH97kPIWi81vFbl+VSWB4WuO+zw0bjGy8cuNhEsInOGJtzD5FvG2rIcT5QSlYsjlNakPqwHPQ67yiFsAQoDK3wIel92tdTAt38RjHL0WR9HL6dNQfs92lrXbb2ttxRhO2BNguEo9w0uTiDW5vyrLYXfBgXmb4GKyA70/hZYNhgc+4FHOOukIGaNNkrqWk93LCy2OzBDl16mDyz/FaPaaNKUulADey4ntXMohQxm6dEyhvAr8swgooXImsHvS8FYGWbfuOIlc4q4zzGJeOtyyEcIcOmBUDjqLDWMW07tkCOC1kn0vStIp+7Fwkae8okcZbinBmRAYkA4sHs9pR6MR+YIO2ec2xF1YY2gd+YRGAW8vFudavIyZUj95Gg2SMwTojdcJUJcfW7qptII1himpPZBdy6hjIot7eyV8benCoZXtqqxY0ixKaQQrZUAfBiVzo0t5E+d1zvCd9yXMaekrOf0GKoYk/AcVinV4pArUaZBO5tbAOYQh2lm3coDWX1xFQsSgjfwjGqSKjHLG8K1gBLT2Tfdbt9IWdBApvD6I7yUwcSOQOM7twQIIQ7AOShl5qI0HGthPsS4n0T5JkFrGMH/n6gpZuai8/O+IMyQ1AKBZOqOOe4MMUtR6q5kO6FINibeDyaQHinAf1AUZWZzhW641Hii7QQIdvpgh6R+lB+sB8eeGLd3AIPoSA1f48kaIRNelDBqxFWt1yhC9szkh4cqU8e0sk6/aSOAIpXsgCT5OJh+ehiBoHUQSQ1FmMfdG1ASdsnvGEL9O8e8gQcfVHsYB70PSU7bKdSfjveuRurSvMCR/cDGI0JNYVFg+0z58630XRF6RZUcDMWd4bGVI1AgOmLMjorS9BowhgBGtNaw/sfHWhxaG74UjoFJEGZeJPBjLFzrbVHEMyVwl7UMYtEcCpAwBSoyESsW6dn/ch8BPOcO3gkXSWPaq4UUFGa40kXXKl74QdUGUFG0OV5GnYggu+HvmtFHTwBtGXwmbCIAPGBpUUyuEINVweGBMy08ySN1IFein1niVTOOTz1dK0S8zU01zTOdKkFb7hCGpmmqtQCuFBxPZYKs2mztQfkHkLWgsS4TCuDJhC1rEl9nn52LkE4Yrqs4bmoYu9yHZZRNx3lxVsZf5kSE+r2VXQNw9MfXAHQ9ZCz5acn7C0KOrarn6Ho3/TicojYzR0Ij0VRxsglJx0aYRRYbsHQSl/iQnxGbemMU1O80HDNmmQHr3h0ddRvlqjspzaf+RUZMaEy+0FeTQFufj2msy5PHzee6M2ihCcWV1jvPynasfMfTobhpu62vhuL795NUXLU/sPQblnof67KOoJrS8GUQw9oymnSZjW2qmpugmHAX1qX6AAJS2tI8Ycg2FghVrsd2R7a/tcsvNzCgw4t24YKay6r1aqc2E/p1x9E7EjEHUQsPWtuAWAUqA9ilAV55lSs0kvFE+Y2jwTRvMN6f1+jDjPhS1icff3gFgsD2tT7fS96kWj6TcNINoeTrdZ4D101HFsNT8J0YY8N/e16t1Wb7vdsLQ4GYZQLQuX0IKRgUn58nVkhg3en1clR7tQjFE7ykswtyuQ5sx4U2GTe6lta9cv37KsFDCTWOotO13FMZQEIjmSt6L9SxUhKls3swEzPadE1UVIpWkcc/7Nxz4E9m7BwayavOaBueNLN8z2XMPIdpOG9XZE53cPDWVfwtq8t2tLatW+/M772DbXSpDMLbm3hWKbV/zWCsGU6xQ0dYB1N4Wgewt6zZiV5QX5hbR/KVlwjqZNY6okmoGe08RY7zar9K3PIjTQwygDYu/ZrRqWULvtwF1/EH5tmUN6q6jHBdT5IkP5bD0Ygj9xi+82PftWqq3jgAp3obBTRxDE9v3Y2adnqZv+4C72eScTNKHx77O9Jyc984jk5CXFsWcM2EkeZNE0e7WRD4DdLNzsirKbz43OfNn7r7QB1xDQ0NDQ0NDQ0NDQ0NDQ0NDQ0NDQ0NDQ0PjP8Q/D2vJ20M4TbcAAAAASUVORK5CYII=;" vertex="1" parent="1">
          <mxGeometry x="46" y="37" width="68" height="68" as="geometry" />
        </mxCell>
      </root>
    </mxGraphModel>
  </diagram>
</mxfile>
